<svg xmlns="http://www.w3.org/2000/svg" version="1.0" width="25.000000pt" height="25.000000pt" viewBox="0 0 512.000000 512.000000" preserveAspectRatio="xMidYMid meet">
  <metadata>
    
Created by potrace 1.14, written by Peter Selinger 2001-2017

  </metadata>
  <g transform="translate(0.000000,512.000000) scale(0.100000,-0.100000)" fill="#000000" stroke="none">
    <path d="M2333 5060c-304-39-612-157-853-328-106-75-282-240-363-341-237-291-382-657-406-1029-45-694 214-1451 751-2192 276-380 730-854 1048-1093l36-26 144 122c546 460 1026 1049 1314 1612 326 635 448 1305 334 1835-156 732-748 1298-1493 1426-107 18-411 26-512 14zm412-395c143-23 260-61 402-130 401-196 680-555 775-998 29-137 32-408 5-542-39-195-123-398-229-553-71-103-223-259-328-338-165-123-386-219-605-260-123-24-369-24-490-1-424 82-774 326-990 688-242 408-258 932-42 1364 203 406 604 700 1052 770 112 18 342 18 450 0z"/>
    <path d="M2290 4118c-50-34-71-69-78-129l-7-54-72-6c-80-8-123-28-171-84-35-39-29-23-107-280l-60-200-36-6c-46-7-96-37-123-72-19-26-21-43-24-220-3-186-2-193 21-237 42-80 83-96 282-114 510-47 760-47 1252-1 155 14 191 24 230 67 46 49 53 86 53 275 0 158-2 181-20 219-23 47-50 68-101 82l-34 8-65 218c-58 197-69 223-104 264-54 62-103 82-198 82l-78 0 0 38c0 59-38 122-90 149-41 22-54 23-240 23-188 0-199-1-230-22zm687-395c13-11 38-78 68-178 27-88 50-166 53-172 3-10-111-13-552-13-306 0-556 1-556 3 0 1 25 81 54 177 33 105 62 179 72 187 14 10 111 13 430 13 378 0 413-1 431-17zm-984-550c42-21 71-91 58-141-31-113-181-138-241-39-45 73-6 173 76 196 33 10 66 5 107-16zm1259 0c57-28 78-134 37-187-82-104-239-51-239 81 0 33 7 50 31 78 47 53 103 63 171 28z"/>
    <path d="M1770 2587c0-86 22-130 80-160 97-50 200 27 200 149l0 52-42 5c-24 4-79 9-123 12-44 4-88 9-97 11-16 5-18-3-18-69z"/>
    <path d="M3215 2649c-44-5-104-11-132-15l-53-5 0-50c0-103 53-163 145-163 61 0 110 30 131 80 18 43 19 165 2 163-7-1-49-5-93-10z"/>
  </g>
</svg>
